<svg xmlns="http://www.w3.org/2000/svg" viewBox="246 1251 12.039 18">
  <defs>
    <style>
      .cls-1 {
        fill: #333;
      }
    </style>
  </defs>
  <g id="pound-sterling" transform="translate(170.663 1251)">
    <path id="Path_288" data-name="Path 288" class="cls-1" d="M83.962,334.618a7.2,7.2,0,0,1-5.912-3.091,6.02,6.02,0,0,0,11.825,0A7.2,7.2,0,0,1,83.962,334.618Z" transform="translate(-2.606 -318.412)"/>
    <path id="Path_289" data-name="Path 289" class="cls-1" d="M83.962,259.282a7.2,7.2,0,0,1-5.912-3.091,6.02,6.02,0,0,0,11.825,0A7.2,7.2,0,0,1,83.962,259.282Z" transform="translate(-2.606 -246.056)"/>
    <path id="Path_290" data-name="Path 290" class="cls-1" d="M81.357,12.039a6.02,6.02,0,1,0-6.02-6.02A6.02,6.02,0,0,0,81.357,12.039Zm-2.434-3.4h.272V6.329h-.268V5.142h.268V3.958a2.3,2.3,0,1,1,4.6,0H82.6a1.112,1.112,0,1,0-2.223,0V5.142h2.025V6.329H80.381v2.31h3.41V9.826H78.922Z"/>
  </g>
</svg>
